<svg width="179" height="49" viewBox="0 0 179 49" fill="none" xmlns="http://www.w3.org/2000/svg">
<path d="M25.3078 36.626C26.7873 36.626 27.9867 35.4267 27.9867 33.9472C27.9867 32.4677 26.7873 31.2683 25.3078 31.2683C23.8283 31.2683 22.6289 32.4677 22.6289 33.9472C22.6289 35.4267 23.8283 36.626 25.3078 36.626Z" fill="#1D2123"/>
<path d="M54.7807 20.1279C59.8664 19.2496 64.2578 16.2702 64.2578 10.2492C64.2578 2.88355 57.6461 0.0181356 51.9748 0.0181356L42.9641 0C41.2127 0 41.5236 0.0181356 41.5054 0.0259079C41.4873 0.0336803 41.6816 0.207263 41.7645 0.310895H50.5732C53.962 0.310895 57.7316 2.93796 58.6384 10.2492C59.5011 17.1977 54.0216 19.1874 50.7235 19.9387L48.7053 20.0346H13.9964C10.2973 20.0145 6.74071 21.4602 4.10475 24.0555C2.75598 25.3769 1.69549 26.9633 0.990087 28.7148C0.284684 30.4662 -0.0503428 32.3448 0.00611434 34.2322C0.0538693 37.9426 1.57364 41.4821 4.2311 44.072C5.54693 45.3544 7.10248 46.3651 8.8089 47.0463C10.5153 47.7276 12.3392 48.066 14.1765 48.0424C16.0137 48.0187 17.8283 47.6334 19.5166 46.9085C21.2049 46.1836 22.734 45.1332 24.0163 43.8174C25.2987 42.5016 26.3094 40.946 26.9906 39.2396C27.6719 37.5332 28.0103 35.7093 27.9867 33.872H27.8131C27.8179 37.4294 26.4503 40.8516 23.9952 43.426C21.5402 46.0004 18.1867 47.5286 14.6331 47.6926C11.0795 47.8565 7.59957 46.6434 4.9179 44.306C2.23622 41.9685 0.559453 38.6868 0.236695 35.1441C-0.512044 27.0401 5.96494 20.2082 13.9964 20.2082H50.3556C51.6847 20.2885 52.9697 20.4206 52.9697 20.4206C55.703 20.7523 61.4442 23.2265 61.4442 30.5895C61.4442 37.5173 57.6668 40.2998 54.0993 40.6081C53.9283 40.6366 50.6147 40.6288 50.6147 40.6288C50.4981 40.6962 50.6561 40.8698 50.8219 40.9268H53.8376C60.5737 40.9268 67.1154 37.9448 67.1154 30.5791C67.1154 23.2135 60.4519 20.1279 54.7807 20.1279Z" fill="#1D2123"/>
<path d="M14.8333 31.6647C14.649 31.7137 14.4622 31.7526 14.2737 31.7813C12.0093 37.481 9.28383 39.9993 5.58936 40.634V40.9345H18.0407V40.6418C14.6856 40.634 13.8643 36.0897 14.8333 31.6647Z" fill="#1D2123"/>
<path d="M33.7645 40.634V40.9345H46.6252L46.3661 40.6366C42.739 40.6366 41.3581 36.5509 39.8399 32.8098C38.2673 29.0609 27.2097 0 27.2097 0H26.6916C26.6916 0 25.7356 2.45089 24.2666 6.2179L24.4117 6.55989C24.5283 6.85265 34.8163 33.6829 35.4018 35.2607C36.9796 39.5251 36.5703 40.634 33.7645 40.634Z" fill="#1D2123"/>
<path d="M41.7183 40.634V40.9345H54.579L54.3199 40.6366C50.6928 40.6366 49.3119 36.5509 47.7911 32.8098C46.2159 29.0609 35.1687 0 35.1687 0H34.6506L32.2256 6.192C32.2774 6.30858 42.7675 33.6777 43.366 35.2555C44.9308 39.5251 44.5215 40.634 41.7183 40.634Z" fill="#1D2123"/>
<path d="M88.1977 11.0448C88.7339 11.1499 89.2171 11.4375 89.5651 11.8587C89.9131 12.2799 90.1045 12.8087 90.1065 13.355C90.1065 14.9305 88.8037 15.8698 86.6525 15.8698H83.1152L83.3197 15.794C83.4659 15.7394 83.5917 15.641 83.6798 15.5122C83.768 15.3834 83.8142 15.2305 83.8121 15.0744V7.79533C83.8142 7.63928 83.768 7.4864 83.6798 7.3576C83.5917 7.2288 83.4659 7.13036 83.3197 7.07575L83.1152 7H86.2965C87.9856 7 89.3263 7.31813 89.3263 9.27236C89.3212 9.64342 89.2129 10.0057 89.0136 10.3188C88.8143 10.6318 88.5318 10.8832 88.1977 11.0448V11.0448ZM84.4635 7.36358V10.916H86.5541C87.6675 10.916 88.6446 10.6282 88.6446 9.24207C88.6446 7.85593 87.6827 7.36358 86.5692 7.36358H84.4635ZM84.4635 15.491H86.857C87.8645 15.491 89.4248 15.0441 89.4248 13.3399C89.4248 11.825 88.4325 11.2796 86.8419 11.2796H84.4635V15.491Z" fill="#1D2123"/>
<path d="M106.271 14.3927L105.862 15.8698H100.181L100.378 15.794C100.524 15.7394 100.65 15.641 100.738 15.5122C100.826 15.3834 100.872 15.2305 100.87 15.0744V7.79533C100.872 7.63928 100.826 7.4864 100.738 7.3576C100.65 7.2288 100.524 7.13036 100.378 7.07575L100.181 7H105.619L105.687 8.11346L105.506 7.77261C105.442 7.65025 105.347 7.5475 105.229 7.47542C105.112 7.40335 104.977 7.36467 104.839 7.36358H101.552V11.1508H103.673C103.821 11.1535 103.967 11.1125 104.092 11.0331C104.217 10.9537 104.316 10.8392 104.377 10.7039L104.468 10.5297V12.0446L104.377 11.8704C104.316 11.7352 104.217 11.6207 104.092 11.5413C103.967 11.4618 103.821 11.4209 103.673 11.4235H101.552V15.5213H104.937C105.128 15.5225 105.316 15.4768 105.485 15.3883C105.654 15.2999 105.799 15.1713 105.907 15.0138L106.271 14.3927Z" fill="#1D2123"/>
<path d="M122.965 15.8698L123.313 15.7411C123.409 15.7068 123.488 15.6357 123.532 15.5434C123.576 15.4511 123.582 15.3452 123.548 15.2487L122.283 12.3174H118.874L117.602 15.2487C117.554 15.3368 117.541 15.44 117.566 15.5371C117.592 15.6342 117.653 15.718 117.738 15.7714L118.026 15.9001H116.382L116.67 15.7714C116.938 15.6478 117.147 15.4251 117.253 15.1503L120.715 7.04553L124.207 15.1881C124.265 15.3379 124.355 15.4735 124.47 15.5859C124.585 15.6982 124.722 15.7847 124.873 15.8395L125.017 15.9001L122.965 15.8698ZM120.526 8.3635L119.011 11.9538H122.116L120.526 8.3635Z" fill="#1D2123"/>
<path d="M141.856 7L141.644 7.10605C141.511 7.16579 141.398 7.26259 141.319 7.38484C141.239 7.5071 141.197 7.64963 141.197 7.79533V12.9081C141.195 13.693 140.882 14.4451 140.327 15.0001C139.772 15.5551 139.02 15.8678 138.235 15.8698H137.712C136.928 15.8678 136.177 15.5548 135.623 14.9997C135.069 14.4445 134.758 13.6923 134.758 12.9081V7.79533C134.76 7.63928 134.714 7.4864 134.626 7.3576C134.538 7.2288 134.412 7.13036 134.266 7.07575L134.062 7H136.114L135.91 7.07575C135.764 7.13036 135.638 7.2288 135.55 7.3576C135.461 7.4864 135.415 7.63928 135.417 7.79533V12.9081C135.38 13.5356 135.583 14.1536 135.986 14.6364C136.388 15.1191 136.96 15.4302 137.584 15.5062H138.508C139.14 15.4348 139.722 15.1307 140.142 14.6533C140.562 14.1758 140.79 13.5591 140.78 12.9233V7.81048C140.78 7.66478 140.737 7.52225 140.658 7.4C140.579 7.27774 140.466 7.18094 140.333 7.1212L140.114 7.01516L141.856 7Z" fill="#1D2123"/>
<path d="M159.694 8.12864L159.512 7.7802C159.447 7.65926 159.351 7.55805 159.234 7.48735C159.117 7.41666 158.982 7.37912 158.845 7.37876H156.149V15.0593C156.146 15.2145 156.191 15.3667 156.278 15.4954C156.365 15.6241 156.489 15.723 156.633 15.7789L156.838 15.8546H154.785L154.99 15.7789C155.136 15.7243 155.262 15.6259 155.35 15.4971C155.438 15.3683 155.484 15.2154 155.482 15.0593V7.37876H152.778C152.642 7.38048 152.51 7.41865 152.394 7.48927C152.278 7.5599 152.183 7.66038 152.119 7.7802L151.93 8.12864L152.005 7.01518H159.625L159.694 8.12864Z" fill="#1D2123"/>
<path d="M178.259 7.03031L178.054 7.1212C177.797 7.23541 177.577 7.419 177.418 7.65141L174.388 12.1961V15.0517C174.386 15.2078 174.432 15.3606 174.521 15.4894C174.609 15.6182 174.734 15.7167 174.881 15.7713L175.078 15.847H173.032L173.229 15.7713C173.376 15.7167 173.501 15.6182 173.589 15.4894C173.678 15.3606 173.724 15.2078 173.722 15.0517V12.181L170.692 7.63626C170.508 7.36801 170.242 7.16617 169.934 7.0606L169.791 7H171.836L171.404 7.15907C171.377 7.17061 171.353 7.18806 171.333 7.21017C171.314 7.23228 171.299 7.25847 171.291 7.28681C171.283 7.31515 171.282 7.34494 171.287 7.37396C171.292 7.40297 171.304 7.43049 171.321 7.45448L174.176 11.7644L177.009 7.4772C177.033 7.42893 177.037 7.37324 177.02 7.3222C177.003 7.27116 176.966 7.22888 176.918 7.20452L176.486 7L178.259 7.03031Z" fill="#1D2123"/>
<path d="M91.5381 34.7017L91.7426 34.7774H89.6899L89.8944 34.7017C90.0392 34.6458 90.1633 34.5469 90.25 34.4182C90.3367 34.2895 90.3818 34.1373 90.3792 33.9821V30.3463H84.4711V33.9821C84.469 34.1381 84.5152 34.291 84.6033 34.4198C84.6915 34.5486 84.8172 34.6471 84.9634 34.7017L85.1679 34.7774H83.1152L83.3197 34.7017C83.4645 34.6458 83.5887 34.5469 83.6754 34.4182C83.7621 34.2895 83.8071 34.1373 83.8045 33.9821V26.703C83.8071 26.5478 83.7621 26.3956 83.6754 26.2669C83.5887 26.1382 83.4645 26.0393 83.3197 25.9834L83.1152 25.9077H85.1679L84.9634 25.9834C84.8172 26.038 84.6915 26.1364 84.6033 26.2652C84.5152 26.394 84.469 26.5469 84.4711 26.703V29.9828H90.4019V26.703C90.4046 26.5478 90.3595 26.3956 90.2728 26.2669C90.1861 26.1382 90.0619 26.0393 89.9171 25.9834L89.7126 25.9077H91.7653L91.5608 25.9834C91.4146 26.038 91.2888 26.1364 91.2007 26.2652C91.1126 26.394 91.0664 26.5469 91.0685 26.703V33.9821C91.0647 34.1355 91.1075 34.2864 91.1914 34.4149C91.2752 34.5434 91.3961 34.6434 91.5381 34.7017V34.7017Z" fill="#1D2123"/>
<path d="M111.065 30.3842C111.065 33.255 108.793 34.8002 106.46 34.8002C104.127 34.8002 101.854 33.2852 101.854 30.3842C101.854 27.4832 104.127 25.9455 106.46 25.9455C108.793 25.9455 111.065 27.4907 111.065 30.3842ZM110.383 30.3842C110.36 29.612 110.109 28.8639 109.662 28.2334C109.216 27.6029 108.593 27.118 107.873 26.8391C107.152 26.5603 106.366 26.5 105.611 26.6657C104.856 26.8314 104.167 27.2158 103.63 27.7709C103.092 28.3259 102.73 29.027 102.589 29.7866C102.448 30.5462 102.534 31.3305 102.836 32.0417C103.137 32.7528 103.642 33.3593 104.287 33.7852C104.931 34.2111 105.687 34.4377 106.46 34.4366C106.988 34.4444 107.513 34.3439 108.001 34.1414C108.489 33.9388 108.93 33.6385 109.298 33.2588C109.665 32.8791 109.951 32.4282 110.138 31.9338C110.325 31.4395 110.408 30.9121 110.383 30.3842Z" fill="#1D2123"/>
<path d="M128.971 25.9304L128.759 26.0364C128.626 26.0961 128.514 26.1929 128.434 26.3152C128.355 26.4375 128.313 26.58 128.312 26.7257V31.8385C128.31 32.6233 127.998 33.3755 127.443 33.9305C126.888 34.4854 126.136 34.7981 125.351 34.8001H124.828C124.044 34.7981 123.293 34.4852 122.739 33.93C122.185 33.3748 121.874 32.6226 121.874 31.8385V26.7257C121.876 26.5696 121.83 26.4168 121.742 26.288C121.654 26.1592 121.528 26.0607 121.382 26.0061L121.177 25.9304H123.23L123.025 26.0061C122.879 26.0607 122.753 26.1592 122.665 26.288C122.577 26.4168 122.531 26.5696 122.533 26.7257V31.8385C122.496 32.4659 122.699 33.084 123.101 33.5667C123.504 34.0495 124.075 34.3605 124.699 34.4365H125.623C126.255 34.3651 126.838 34.0611 127.258 33.5836C127.678 33.1062 127.906 32.4895 127.896 31.8536V26.7408C127.896 26.5951 127.853 26.4526 127.774 26.3304C127.695 26.2081 127.582 26.1113 127.449 26.0516L127.229 25.9455L128.971 25.9304Z" fill="#1D2123"/>
<path d="M142.348 29.9071C143.522 30.5282 144.749 30.9978 144.749 32.5051C144.749 33.861 143.234 34.8153 141.583 34.8153C140.785 34.8375 140.007 34.5682 139.394 34.0579C139.361 34.0342 139.321 34.021 139.28 34.02C139.247 34.0196 139.215 34.0286 139.186 34.0461C139.158 34.0635 139.136 34.0886 139.121 34.1185L139.03 34.2624V32.9672L139.303 33.4216C139.568 33.7659 139.914 34.0389 140.311 34.2161C140.708 34.3932 141.142 34.469 141.575 34.4366C142.818 34.4366 144.029 33.7701 144.029 32.49C144.029 31.5886 142.833 31.0887 141.795 30.5206C140.757 29.9525 139.258 29.3238 139.258 28.1725C139.258 26.8167 140.454 25.9001 142.113 25.9001C142.693 25.909 143.264 26.0433 143.787 26.294C143.814 26.3008 143.843 26.3008 143.87 26.294C143.902 26.2946 143.932 26.2864 143.959 26.2703C143.986 26.2542 144.008 26.2309 144.022 26.2031L144.136 26.0138V27.3166L143.976 27.0439C143.774 26.7464 143.492 26.5123 143.162 26.3688C142.832 26.2254 142.469 26.1784 142.113 26.2334C140.901 26.2334 139.932 26.8394 139.932 27.6802C139.932 28.8769 141.333 29.2632 142.355 29.8162L142.348 29.9071Z" fill="#1D2123"/>
<path d="M160.973 33.3231L160.564 34.8001H154.876L155.08 34.7244C155.227 34.6698 155.352 34.5713 155.441 34.4425C155.529 34.3137 155.575 34.1608 155.573 34.0048V26.7257C155.575 26.5696 155.529 26.4168 155.441 26.288C155.352 26.1592 155.227 26.0607 155.08 26.0061L154.876 25.9304H160.337L160.405 27.0438L160.224 26.703C160.16 26.5806 160.065 26.4779 159.947 26.4058C159.83 26.3337 159.695 26.295 159.557 26.2939H156.247V30.0812H158.375C158.524 30.0838 158.669 30.0429 158.795 29.9635C158.92 29.884 159.019 29.7696 159.08 29.6343L159.163 29.4601V30.975L159.08 30.8008C159.019 30.6655 158.92 30.5511 158.795 30.4716C158.669 30.3922 158.524 30.3512 158.375 30.3539H156.247V34.4517H159.64C159.831 34.4528 160.019 34.4072 160.188 34.3187C160.357 34.2302 160.502 34.1016 160.61 33.9442L160.973 33.3231Z" fill="#1D2123"/>
</svg>
