<svg width="20" height="20" viewBox="0 0 20 20" fill="none" xmlns="http://www.w3.org/2000/svg">
<g opacity="0.8">
<path d="M14.5455 0.90918H5.45463C2.94425 0.90918 0.90918 2.94425 0.90918 5.45463V14.5455C0.90918 17.0559 2.94425 19.091 5.45463 19.091H14.5455C17.0559 19.091 19.091 17.0559 19.091 14.5455V5.45463C19.091 2.94425 17.0559 0.90918 14.5455 0.90918Z" stroke="white" stroke-width="1.5" stroke-linecap="round" stroke-linejoin="round"/>
<path d="M13.6362 9.42719C13.7484 10.1838 13.6192 10.9565 13.2669 11.6354C12.9146 12.3143 12.3573 12.8648 11.6741 13.2087C10.9909 13.5526 10.2166 13.6723 9.46149 13.5508C8.70634 13.4293 8.00874 13.0727 7.4679 12.5319C6.92706 11.991 6.57053 11.2934 6.44902 10.5383C6.32751 9.78315 6.4472 9.00891 6.79107 8.32571C7.13495 7.64251 7.68549 7.08514 8.3644 6.73287C9.04331 6.38059 9.81601 6.25136 10.5726 6.36356C11.3443 6.478 12.0588 6.83761 12.6105 7.38929C13.1622 7.94096 13.5218 8.65544 13.6362 9.42719Z" stroke="white" stroke-width="1.5" stroke-linecap="round" stroke-linejoin="round"/>
<path d="M15 5H15.01" stroke="white" stroke-width="1.5" stroke-linecap="round" stroke-linejoin="round"/>
</g>
</svg>
