<svg width="41" height="28" viewBox="0 0 41 28" fill="none" xmlns="http://www.w3.org/2000/svg">
<path d="M15.9244 21.3459C16.7971 21.3459 17.5045 20.6469 17.5045 19.7847C17.5045 18.9224 16.7971 18.2234 15.9244 18.2234C15.0517 18.2234 14.3442 18.9224 14.3442 19.7847C14.3442 20.6469 15.0517 21.3459 15.9244 21.3459Z" fill="white"/>
<path d="M33.309 11.7306C36.3088 11.2188 38.8991 9.48234 38.8991 5.97327C38.8991 1.68055 34.9992 0.0105695 31.654 0.0105695L26.339 0C25.3059 0 25.4893 0.0105695 25.4786 0.0150993C25.4679 0.019629 25.5825 0.120794 25.6314 0.181191H30.8272C32.8261 0.181191 35.0496 1.71226 35.5845 5.97327C36.0933 10.0229 32.8612 11.1825 30.9159 11.6204L29.7254 11.6763H9.25237C7.07043 11.6645 4.9726 12.5071 3.41777 14.0197C2.6222 14.7898 1.99667 15.7143 1.58059 16.7351C1.1645 17.7559 0.966887 18.8507 1.00019 19.9507C1.02836 22.1131 1.92479 24.176 3.4923 25.6854C4.26845 26.4328 5.18598 27.0218 6.19252 27.4188C7.19906 27.8159 8.27489 28.0131 9.35858 27.9993C10.4423 27.9855 11.5126 27.761 12.5085 27.3385C13.5043 26.916 14.4062 26.3039 15.1626 25.537C15.9191 24.7701 16.5152 23.8635 16.917 22.869C17.3189 21.8745 17.5185 20.8115 17.5045 19.7408H17.4022C17.405 21.814 16.5983 23.8085 15.1502 25.3089C13.7021 26.8092 11.724 27.6999 9.62792 27.7955C7.53182 27.891 5.47919 27.184 3.89741 25.8217C2.31562 24.4595 1.32658 22.5469 1.1362 20.4822C0.694552 15.7591 4.51501 11.7774 9.25237 11.7774H30.6989C31.4828 11.8242 32.2408 11.9012 32.2408 11.9012C33.853 12.0945 37.2395 13.5365 37.2395 17.8277C37.2395 21.8652 35.0114 23.4869 32.9071 23.6666C32.8062 23.6832 30.8517 23.6787 30.8517 23.6787C30.7829 23.7179 30.8761 23.8191 30.9739 23.8523H32.7527C36.726 23.8523 40.5847 22.1144 40.5847 17.8217C40.5847 13.5289 36.6542 11.7306 33.309 11.7306Z" fill="white"/>
<path d="M9.74601 18.4545C9.63731 18.483 9.52712 18.5057 9.41592 18.5224C8.08029 21.8443 6.47264 23.3119 4.29346 23.6818V23.857H11.6379V23.6864C9.6589 23.6818 9.17447 21.0334 9.74601 18.4545Z" fill="white"/>
<path d="M20.9124 23.6817V23.8568H28.4983L28.3454 23.6832C26.206 23.6832 25.3915 21.302 24.496 19.1217C23.5684 16.9368 17.0461 0 17.0461 0H16.7404C16.7404 0 16.1765 1.42839 15.3101 3.62382L15.3956 3.82313C15.4644 3.99376 21.5328 19.6306 21.8782 20.5501C22.8088 23.0354 22.5674 23.6817 20.9124 23.6817Z" fill="white"/>
<path d="M25.6041 23.6817V23.8568H33.19L33.0372 23.6832C30.8978 23.6832 30.0832 21.302 29.1862 19.1217C28.2571 16.9368 21.7409 0 21.7409 0H21.4353L20.0049 3.60872C20.0354 3.67667 26.2231 19.6275 26.5761 20.5471C27.4991 23.0354 27.2576 23.6817 25.6041 23.6817Z" fill="white"/>
</svg>
