<svg width="249" height="31" viewBox="0 0 249 31" fill="none" xmlns="http://www.w3.org/2000/svg">
<rect width="249" height="24" rx="4" fill="#1D2123"/>
<path d="M124.866 29.5C124.481 30.1667 123.519 30.1667 123.134 29.5L119.67 23.5C119.285 22.8333 119.766 22 120.536 22H127.464C128.234 22 128.715 22.8333 128.33 23.5L124.866 29.5Z" fill="#1D2123"/>
<path d="M13.1184 16.144C11.8624 16.144 10.8104 15.724 9.96239 14.884C9.12239 14.036 8.70239 12.988 8.70239 11.74C8.70239 10.492 9.12239 9.448 9.96239 8.608C10.8104 7.76 11.8624 7.336 13.1184 7.336C14.1424 7.336 15.0264 7.624 15.7704 8.2C16.5224 8.776 16.9984 9.472 17.1984 10.288H16.0224C15.8224 9.736 15.4584 9.284 14.9304 8.932C14.4104 8.572 13.8064 8.392 13.1184 8.392C12.1744 8.392 11.3864 8.716 10.7544 9.364C10.1304 10.004 9.81839 10.796 9.81839 11.74C9.81839 12.684 10.1304 13.48 10.7544 14.128C11.3864 14.768 12.1744 15.088 13.1184 15.088C13.8064 15.088 14.4104 14.912 14.9304 14.56C15.4584 14.2 15.8224 13.744 16.0224 13.192H17.1984C16.9984 14.008 16.5224 14.704 15.7704 15.28C15.0264 15.856 14.1424 16.144 13.1184 16.144ZM11.8224 18.448V17.788C12.0624 17.924 12.3664 17.992 12.7344 17.992C12.9664 17.992 13.1584 17.952 13.3104 17.872C13.4704 17.792 13.5504 17.668 13.5504 17.5C13.5504 17.26 13.3664 17.14 12.9984 17.14C12.8064 17.14 12.6264 17.18 12.4584 17.26L12.0744 17.008L12.6984 15.964H13.3584L12.9504 16.636C13.0704 16.58 13.2304 16.552 13.4304 16.552C13.7184 16.552 13.9504 16.632 14.1264 16.792C14.3024 16.96 14.3904 17.184 14.3904 17.464C14.3904 17.808 14.2424 18.088 13.9464 18.304C13.6504 18.52 13.2824 18.628 12.8424 18.628C12.4184 18.628 12.0784 18.568 11.8224 18.448ZM21.0514 16.12C20.2194 16.12 19.5194 15.816 18.9514 15.208C18.3914 14.6 18.1114 13.864 18.1114 13C18.1114 12.136 18.3914 11.4 18.9514 10.792C19.5194 10.184 20.2194 9.88 21.0514 9.88C21.4914 9.88 21.8994 9.98 22.2754 10.18C22.6594 10.372 22.9554 10.62 23.1634 10.924V10H24.1954V16H23.1634V15.076C22.9554 15.38 22.6594 15.632 22.2754 15.832C21.8994 16.024 21.4914 16.12 21.0514 16.12ZM21.2074 15.172C21.7994 15.172 22.2874 14.964 22.6714 14.548C23.0554 14.132 23.2474 13.616 23.2474 13C23.2474 12.384 23.0554 11.868 22.6714 11.452C22.2874 11.036 21.7994 10.828 21.2074 10.828C20.6074 10.828 20.1154 11.036 19.7314 11.452C19.3474 11.868 19.1554 12.384 19.1554 13C19.1554 13.616 19.3474 14.132 19.7314 14.548C20.1154 14.964 20.6074 15.172 21.2074 15.172ZM28.466 16.06C27.914 16.06 27.47 15.904 27.134 15.592C26.798 15.28 26.63 14.824 26.63 14.224V10.948H25.358V10H26.63V8.332H27.662V10H29.39V10.948H27.662V14.092C27.662 14.468 27.742 14.732 27.902 14.884C28.062 15.036 28.314 15.112 28.658 15.112C28.962 15.112 29.206 15.072 29.39 14.992V15.916C29.102 16.012 28.794 16.06 28.466 16.06ZM33.0983 16.12C32.2663 16.12 31.5663 15.816 30.9983 15.208C30.4383 14.6 30.1583 13.864 30.1583 13C30.1583 12.136 30.4383 11.4 30.9983 10.792C31.5663 10.184 32.2663 9.88 33.0983 9.88C33.5383 9.88 33.9463 9.98 34.3223 10.18C34.7063 10.372 35.0023 10.62 35.2103 10.924V7H36.2423V16H35.2103V15.076C35.0023 15.38 34.7063 15.632 34.3223 15.832C33.9463 16.024 33.5383 16.12 33.0983 16.12ZM33.2543 15.172C33.8463 15.172 34.3343 14.964 34.7183 14.548C35.1023 14.132 35.2943 13.616 35.2943 13C35.2943 12.384 35.1023 11.868 34.7183 11.452C34.3343 11.036 33.8463 10.828 33.2543 10.828C32.6543 10.828 32.1623 11.036 31.7783 11.452C31.3943 11.868 31.2023 12.384 31.2023 13C31.2023 13.616 31.3943 14.132 31.7783 14.548C32.1623 14.964 32.6543 15.172 33.2543 15.172ZM38.1849 16V10H39.2169V16H38.1849ZM41.1732 16V10H42.2052V11.164C42.3172 10.796 42.5332 10.5 42.8532 10.276C43.1812 10.052 43.5252 9.94 43.8852 9.94C44.0612 9.94 44.2172 9.956 44.3532 9.988V11.056C44.2092 10.992 44.0212 10.96 43.7892 10.96C43.3732 10.96 43.0052 11.14 42.6852 11.5C42.3652 11.86 42.2052 12.368 42.2052 13.024V16H41.1732ZM45.5677 16V10H46.5997V16H45.5677ZM48.556 16V7H49.588V16H48.556ZM59.2723 16V12.472C59.2723 11.976 59.1683 11.58 58.9603 11.284C58.7603 10.98 58.4683 10.828 58.0843 10.828C57.6043 10.828 57.2123 11.016 56.9083 11.392C56.6123 11.768 56.4563 12.28 56.4403 12.928V16H55.4083V12.472C55.4083 11.968 55.3043 11.568 55.0963 11.272C54.8963 10.976 54.6083 10.828 54.2323 10.828C53.7363 10.828 53.3363 11.028 53.0323 11.428C52.7283 11.82 52.5763 12.352 52.5763 13.024V16H51.5443V10H52.5763V10.924C52.9603 10.228 53.5643 9.88 54.3883 9.88C55.3003 9.88 55.9163 10.308 56.2363 11.164C56.3963 10.772 56.6523 10.46 57.0043 10.228C57.3563 9.996 57.7563 9.88 58.2043 9.88C58.8523 9.88 59.3643 10.1 59.7403 10.54C60.1163 10.98 60.3043 11.572 60.3043 12.316V16H59.2723ZM64.6335 16.12C63.8015 16.12 63.1015 15.816 62.5335 15.208C61.9735 14.6 61.6935 13.864 61.6935 13C61.6935 12.136 61.9735 11.4 62.5335 10.792C63.1015 10.184 63.8015 9.88 64.6335 9.88C65.0735 9.88 65.4815 9.98 65.8575 10.18C66.2415 10.372 66.5375 10.62 66.7455 10.924V10H67.7775V16H66.7455V15.076C66.5375 15.38 66.2415 15.632 65.8575 15.832C65.4815 16.024 65.0735 16.12 64.6335 16.12ZM64.7895 15.172C65.3815 15.172 65.8695 14.964 66.2535 14.548C66.6375 14.132 66.8295 13.616 66.8295 13C66.8295 12.384 66.6375 11.868 66.2535 11.452C65.8695 11.036 65.3815 10.828 64.7895 10.828C64.1895 10.828 63.6975 11.036 63.3135 11.452C62.9295 11.868 62.7375 12.384 62.7375 13C62.7375 13.616 62.9295 14.132 63.3135 14.548C63.6975 14.964 64.1895 15.172 64.7895 15.172ZM74.7386 16.12C74.0826 16.12 73.5506 15.9 73.1426 15.46C72.7346 15.012 72.5306 14.42 72.5306 13.684V10H73.5626V13.528C73.5626 14.032 73.6826 14.432 73.9226 14.728C74.1706 15.024 74.5026 15.172 74.9186 15.172C75.3986 15.172 75.7946 14.976 76.1066 14.584C76.4266 14.184 76.5866 13.648 76.5866 12.976V10H77.6186V16H76.5866V15.076C76.1946 15.772 75.5786 16.12 74.7386 16.12ZM73.7186 8.848C73.5186 8.848 73.3506 8.78 73.2146 8.644C73.0786 8.508 73.0106 8.344 73.0106 8.152C73.0106 7.96 73.0786 7.796 73.2146 7.66C73.3506 7.516 73.5186 7.444 73.7186 7.444C73.9106 7.444 74.0746 7.516 74.2106 7.66C74.3466 7.796 74.4146 7.96 74.4146 8.152C74.4146 8.344 74.3466 8.508 74.2106 8.644C74.0746 8.78 73.9106 8.848 73.7186 8.848ZM76.9106 8.644C76.7746 8.78 76.6106 8.848 76.4186 8.848C76.2266 8.848 76.0586 8.78 75.9146 8.644C75.7786 8.508 75.7106 8.344 75.7106 8.152C75.7106 7.96 75.7786 7.796 75.9146 7.66C76.0586 7.516 76.2266 7.444 76.4186 7.444C76.6106 7.444 76.7746 7.516 76.9106 7.66C77.0466 7.796 77.1146 7.96 77.1146 8.152C77.1146 8.344 77.0466 8.508 76.9106 8.644ZM79.5638 16V10H80.5958V10.924C81.0038 10.228 81.6398 9.88 82.5038 9.88C83.1838 9.88 83.7318 10.1 84.1478 10.54C84.5638 10.98 84.7718 11.568 84.7718 12.304V16H83.7518V12.46C83.7518 11.956 83.6238 11.56 83.3678 11.272C83.1118 10.976 82.7678 10.828 82.3358 10.828C81.8398 10.828 81.4238 11.024 81.0878 11.416C80.7598 11.808 80.5958 12.344 80.5958 13.024V16H79.5638ZM88.3733 16L85.6013 10H86.7533L88.8053 14.548L90.8573 10H92.0093L89.2373 16H88.3733ZM95.4069 16.12C94.5749 16.12 93.8749 15.816 93.3069 15.208C92.7469 14.6 92.4669 13.864 92.4669 13C92.4669 12.136 92.7469 11.4 93.3069 10.792C93.8749 10.184 94.5749 9.88 95.4069 9.88C95.8469 9.88 96.2549 9.98 96.6309 10.18C97.0149 10.372 97.3109 10.62 97.5189 10.924V10H98.5509V16H97.5189V15.076C97.3109 15.38 97.0149 15.632 96.6309 15.832C96.2549 16.024 95.8469 16.12 95.4069 16.12ZM95.5629 15.172C96.1549 15.172 96.6429 14.964 97.0269 14.548C97.4109 14.132 97.6029 13.616 97.6029 13C97.6029 12.384 97.4109 11.868 97.0269 11.452C96.6429 11.036 96.1549 10.828 95.5629 10.828C94.9629 10.828 94.4709 11.036 94.0869 11.452C93.7029 11.868 93.5109 12.384 93.5109 13C93.5109 13.616 93.7029 14.132 94.0869 14.548C94.4709 14.964 94.9629 15.172 95.5629 15.172ZM100.493 16V10H101.525V10.924C101.933 10.228 102.569 9.88 103.433 9.88C104.113 9.88 104.661 10.1 105.077 10.54C105.493 10.98 105.701 11.568 105.701 12.304V16H104.681V12.46C104.681 11.956 104.553 11.56 104.297 11.272C104.041 10.976 103.697 10.828 103.265 10.828C102.769 10.828 102.353 11.024 102.017 11.416C101.689 11.808 101.525 12.344 101.525 13.024V16H100.493ZM107.56 16V10H108.592V16H107.56ZM110.548 16V10H111.58V10.924C111.988 10.228 112.624 9.88 113.488 9.88C114.168 9.88 114.716 10.1 115.132 10.54C115.548 10.98 115.756 11.568 115.756 12.304V16H114.736V12.46C114.736 11.956 114.608 11.56 114.352 11.272C114.096 10.976 113.752 10.828 113.32 10.828C112.824 10.828 112.408 11.024 112.072 11.416C111.744 11.808 111.58 12.344 111.58 13.024V16H110.548ZM120.087 16.12C119.255 16.12 118.555 15.816 117.987 15.208C117.427 14.6 117.147 13.864 117.147 13C117.147 12.136 117.427 11.4 117.987 10.792C118.555 10.184 119.255 9.88 120.087 9.88C120.527 9.88 120.935 9.98 121.311 10.18C121.695 10.372 121.991 10.62 122.199 10.924V7H123.231V16H122.199V15.076C121.991 15.38 121.695 15.632 121.311 15.832C120.935 16.024 120.527 16.12 120.087 16.12ZM120.243 15.172C120.835 15.172 121.323 14.964 121.707 14.548C122.091 14.132 122.283 13.616 122.283 13C122.283 12.384 122.091 11.868 121.707 11.452C121.323 11.036 120.835 10.828 120.243 10.828C119.643 10.828 119.151 11.036 118.767 11.452C118.383 11.868 118.191 12.384 118.191 13C118.191 13.616 118.383 14.132 118.767 14.548C119.151 14.964 119.643 15.172 120.243 15.172ZM127.645 16.12C126.813 16.12 126.113 15.816 125.545 15.208C124.985 14.6 124.705 13.864 124.705 13C124.705 12.136 124.985 11.4 125.545 10.792C126.113 10.184 126.813 9.88 127.645 9.88C128.085 9.88 128.493 9.98 128.869 10.18C129.253 10.372 129.549 10.62 129.757 10.924V10H130.789V16H129.757V15.076C129.549 15.38 129.253 15.632 128.869 15.832C128.493 16.024 128.085 16.12 127.645 16.12ZM127.801 15.172C128.393 15.172 128.881 14.964 129.265 14.548C129.649 14.132 129.841 13.616 129.841 13C129.841 12.384 129.649 11.868 129.265 11.452C128.881 11.036 128.393 10.828 127.801 10.828C127.201 10.828 126.709 11.036 126.325 11.452C125.941 11.868 125.749 12.384 125.749 13C125.749 13.616 125.941 14.132 126.325 14.548C126.709 14.964 127.201 15.172 127.801 15.172ZM136.658 16H135.626V7H136.658V10.924C137.066 10.228 137.702 9.88 138.566 9.88C139.246 9.88 139.794 10.1 140.21 10.54C140.626 10.98 140.834 11.568 140.834 12.304V16H139.814V12.46C139.814 11.956 139.686 11.56 139.43 11.272C139.174 10.976 138.83 10.828 138.398 10.828C137.902 10.828 137.486 11.024 137.15 11.416C136.822 11.808 136.658 12.344 136.658 13.024V16ZM145.249 16.12C144.377 16.12 143.653 15.824 143.077 15.232C142.509 14.64 142.225 13.896 142.225 13C142.225 12.096 142.501 11.352 143.053 10.768C143.613 10.176 144.353 9.88 145.273 9.88C146.201 9.88 146.929 10.208 147.457 10.864C147.985 11.52 148.217 12.324 148.153 13.276H143.269C143.285 13.82 143.485 14.276 143.869 14.644C144.253 15.004 144.717 15.184 145.261 15.184C146.077 15.184 146.657 14.848 147.001 14.176H148.057C147.905 14.736 147.581 15.2 147.085 15.568C146.589 15.936 145.977 16.12 145.249 16.12ZM146.425 11.224C146.097 10.936 145.701 10.792 145.237 10.792C144.773 10.792 144.357 10.932 143.989 11.212C143.629 11.492 143.405 11.908 143.317 12.46H147.061C146.965 11.916 146.753 11.504 146.425 11.224ZM152.306 16.12C151.402 16.12 150.654 15.82 150.062 15.22C149.47 14.612 149.174 13.872 149.174 13C149.174 12.128 149.47 11.392 150.062 10.792C150.654 10.184 151.402 9.88 152.306 9.88C153.05 9.88 153.694 10.088 154.238 10.504C154.782 10.912 155.146 11.448 155.33 12.112H154.226C154.082 11.72 153.842 11.408 153.506 11.176C153.17 10.944 152.77 10.828 152.306 10.828C151.69 10.828 151.186 11.036 150.794 11.452C150.41 11.868 150.218 12.384 150.218 13C150.218 13.616 150.41 14.132 150.794 14.548C151.186 14.964 151.69 15.172 152.306 15.172C152.77 15.172 153.17 15.056 153.506 14.824C153.842 14.592 154.082 14.28 154.226 13.888H155.33C155.154 14.552 154.794 15.092 154.25 15.508C153.706 15.916 153.058 16.12 152.306 16.12ZM151.046 18.448V17.788C151.286 17.924 151.59 17.992 151.958 17.992C152.19 17.992 152.382 17.948 152.534 17.86C152.694 17.78 152.774 17.66 152.774 17.5C152.774 17.26 152.586 17.14 152.21 17.14C152.026 17.14 151.85 17.18 151.682 17.26L151.286 17.008L151.922 15.964H152.57L152.162 16.636C152.282 16.58 152.442 16.552 152.642 16.552C152.93 16.552 153.162 16.632 153.338 16.792C153.522 16.96 153.614 17.184 153.614 17.464C153.614 17.808 153.462 18.088 153.158 18.304C152.862 18.52 152.494 18.628 152.054 18.628C151.63 18.628 151.294 18.568 151.046 18.448ZM163.875 16L160.623 13V16H159.591V7H160.623V12.34L163.239 10H164.607L161.655 12.652L165.267 16H163.875ZM168.181 9.88C169.045 9.88 169.757 10.176 170.317 10.768C170.877 11.36 171.157 12.104 171.157 13C171.157 13.944 170.893 14.7 170.365 15.268C169.845 15.836 169.117 16.12 168.181 16.12C167.237 16.12 166.493 15.792 165.949 15.136C165.405 14.48 165.165 13.676 165.229 12.724H170.113C170.081 12.18 169.881 11.728 169.513 11.368C169.145 11 168.701 10.816 168.181 10.816C167.333 10.816 166.737 11.152 166.393 11.824H165.325C165.477 11.264 165.801 10.8 166.297 10.432C166.801 10.064 167.429 9.88 168.181 9.88ZM168.217 15.208C168.681 15.208 169.081 15.072 169.417 14.8C169.761 14.52 169.977 14.1 170.065 13.54H166.309C166.405 14.076 166.625 14.488 166.969 14.776C167.321 15.064 167.737 15.208 168.217 15.208ZM174.578 16.12C173.906 16.12 173.342 15.956 172.886 15.628C172.438 15.3 172.19 14.844 172.142 14.26H173.198C173.262 14.596 173.422 14.844 173.678 15.004C173.942 15.164 174.246 15.244 174.59 15.244C174.934 15.244 175.21 15.176 175.418 15.04C175.634 14.904 175.742 14.708 175.742 14.452C175.742 14.212 175.662 14.016 175.502 13.864C175.35 13.712 175.098 13.588 174.746 13.492L173.882 13.264C172.85 12.992 172.334 12.404 172.334 11.5C172.334 11.012 172.526 10.62 172.91 10.324C173.302 10.028 173.802 9.88 174.41 9.88C175.026 9.88 175.53 10.044 175.922 10.372C176.322 10.692 176.546 11.1 176.594 11.596H175.562C175.482 11.332 175.338 11.124 175.13 10.972C174.93 10.82 174.69 10.744 174.41 10.744C174.114 10.744 173.866 10.812 173.666 10.948C173.474 11.084 173.378 11.264 173.378 11.488C173.378 11.704 173.45 11.88 173.594 12.016C173.738 12.152 173.97 12.264 174.29 12.352L175.25 12.604C176.274 12.86 176.786 13.452 176.786 14.38C176.786 14.956 176.582 15.392 176.174 15.688C175.766 15.976 175.234 16.12 174.578 16.12ZM183.271 16.06C182.719 16.06 182.275 15.904 181.939 15.592C181.603 15.28 181.435 14.824 181.435 14.224V10.948H180.163V10H181.435V8.332H182.467V10H184.195V10.948H182.467V14.092C182.467 14.468 182.547 14.732 182.707 14.884C182.867 15.036 183.119 15.112 183.463 15.112C183.767 15.112 184.011 15.072 184.195 14.992V15.916C183.907 16.012 183.599 16.06 183.271 16.06ZM187.903 16.12C187.071 16.12 186.371 15.816 185.803 15.208C185.243 14.6 184.963 13.864 184.963 13C184.963 12.136 185.243 11.4 185.803 10.792C186.371 10.184 187.071 9.88 187.903 9.88C188.343 9.88 188.751 9.98 189.127 10.18C189.511 10.372 189.807 10.62 190.015 10.924V10H191.047V16H190.015V15.076C189.807 15.38 189.511 15.632 189.127 15.832C188.751 16.024 188.343 16.12 187.903 16.12ZM188.059 15.172C188.651 15.172 189.139 14.964 189.523 14.548C189.907 14.132 190.099 13.616 190.099 13C190.099 12.384 189.907 11.868 189.523 11.452C189.139 11.036 188.651 10.828 188.059 10.828C187.459 10.828 186.967 11.036 186.583 11.452C186.199 11.868 186.007 12.384 186.007 13C186.007 13.616 186.199 14.132 186.583 14.548C186.967 14.964 187.459 15.172 188.059 15.172ZM194.022 18.508H192.99V10H194.022V10.924C194.23 10.62 194.522 10.372 194.898 10.18C195.282 9.98 195.694 9.88 196.134 9.88C196.966 9.88 197.662 10.184 198.222 10.792C198.79 11.4 199.074 12.136 199.074 13C199.074 13.864 198.79 14.6 198.222 15.208C197.662 15.816 196.966 16.12 196.134 16.12C195.694 16.12 195.282 16.024 194.898 15.832C194.522 15.632 194.23 15.38 194.022 15.076V18.508ZM194.514 14.548C194.898 14.964 195.386 15.172 195.978 15.172C196.57 15.172 197.058 14.964 197.442 14.548C197.826 14.132 198.018 13.616 198.018 13C198.018 12.384 197.826 11.868 197.442 11.452C197.058 11.036 196.57 10.828 195.978 10.828C195.386 10.828 194.898 11.036 194.514 11.452C194.13 11.868 193.938 12.384 193.938 13C193.938 13.616 194.13 14.132 194.514 14.548ZM200.56 16V10H201.592V16H200.56ZM203.548 16V7H204.58V16H203.548ZM214.264 16V12.472C214.264 11.976 214.16 11.58 213.952 11.284C213.752 10.98 213.46 10.828 213.076 10.828C212.596 10.828 212.204 11.016 211.9 11.392C211.604 11.768 211.448 12.28 211.432 12.928V16H210.4V12.472C210.4 11.968 210.296 11.568 210.088 11.272C209.888 10.976 209.6 10.828 209.224 10.828C208.728 10.828 208.328 11.028 208.024 11.428C207.72 11.82 207.568 12.352 207.568 13.024V16H206.536V10H207.568V10.924C207.952 10.228 208.556 9.88 209.38 9.88C210.292 9.88 210.908 10.308 211.228 11.164C211.388 10.772 211.644 10.46 211.996 10.228C212.348 9.996 212.748 9.88 213.196 9.88C213.844 9.88 214.356 10.1 214.732 10.54C215.108 10.98 215.296 11.572 215.296 12.316V16H214.264ZM219.626 16.12C218.794 16.12 218.094 15.816 217.526 15.208C216.966 14.6 216.686 13.864 216.686 13C216.686 12.136 216.966 11.4 217.526 10.792C218.094 10.184 218.794 9.88 219.626 9.88C220.066 9.88 220.474 9.98 220.85 10.18C221.234 10.372 221.53 10.62 221.738 10.924V10H222.77V16H221.738V15.076C221.53 15.38 221.234 15.632 220.85 15.832C220.474 16.024 220.066 16.12 219.626 16.12ZM219.782 15.172C220.374 15.172 220.862 14.964 221.246 14.548C221.63 14.132 221.822 13.616 221.822 13C221.822 12.384 221.63 11.868 221.246 11.452C220.862 11.036 220.374 10.828 219.782 10.828C219.182 10.828 218.69 11.036 218.306 11.452C217.922 11.868 217.73 12.384 217.73 13C217.73 13.616 217.922 14.132 218.306 14.548C218.69 14.964 219.182 15.172 219.782 15.172ZM226.308 18.508H225.156L226.464 15.688L223.836 10H224.976L227.04 14.56L229.092 10H230.244L226.308 18.508ZM231.275 16V10H232.307V16H231.275ZM237.407 16.12C236.967 16.12 236.555 16.024 236.171 15.832C235.795 15.632 235.503 15.38 235.295 15.076V16H234.263V7H235.295V10.924C235.503 10.62 235.795 10.372 236.171 10.18C236.555 9.98 236.967 9.88 237.407 9.88C238.239 9.88 238.935 10.184 239.495 10.792C240.063 11.4 240.347 12.136 240.347 13C240.347 13.864 240.063 14.6 239.495 15.208C238.935 15.816 238.239 16.12 237.407 16.12ZM235.787 14.548C236.171 14.964 236.659 15.172 237.251 15.172C237.843 15.172 238.331 14.964 238.715 14.548C239.099 14.132 239.291 13.616 239.291 13C239.291 12.384 239.099 11.868 238.715 11.452C238.331 11.036 237.843 10.828 237.251 10.828C236.659 10.828 236.171 11.036 235.787 11.452C235.403 11.868 235.211 12.384 235.211 13C235.211 13.616 235.403 14.132 235.787 14.548Z" fill="white"/>
</svg>
