<svg width="106" height="18" viewBox="0 0 106 18" fill="none" xmlns="http://www.w3.org/2000/svg">
<path d="M8.85735 1.16333L11.2411 6.24129L16.5716 7.06058L12.7145 11.011L13.6248 16.5919L8.85735 13.9556L4.08992 16.5919L5.00021 11.011L1.14307 7.06058L6.47364 6.24129L8.85735 1.16333Z" fill="#F2994A"/>
<path d="M30.8574 1.16333L33.2411 6.24129L38.5716 7.06058L34.7145 11.011L35.6248 16.5919L30.8574 13.9556L26.0899 16.5919L27.0002 11.011L23.1431 7.06058L28.4736 6.24129L30.8574 1.16333Z" fill="#F2994A"/>
<path d="M52.8574 1.16333L55.2411 6.24129L60.5716 7.06058L56.7145 11.011L57.6248 16.5919L52.8574 13.9556L48.0899 16.5919L49.0002 11.011L45.1431 7.06058L50.4736 6.24129L52.8574 1.16333Z" fill="#F2994A"/>
<path d="M74.8574 1.16333L77.2411 6.24129L82.5716 7.06058L78.7145 11.011L79.6248 16.5919L74.8574 13.9556L70.0899 16.5919L71.0002 11.011L67.1431 7.06058L72.4736 6.24129L74.8574 1.16333Z" fill="#F2994A"/>
<path d="M96.8574 1.16333L99.2411 6.24129L104.572 7.06058L100.714 11.011L101.625 16.5919L96.8574 13.9556L92.0899 16.5919L93.0002 11.011L89.1431 7.06058L94.4736 6.24129L96.8574 1.16333Z" fill="white" stroke="#F2994A" stroke-linecap="round" stroke-linejoin="round"/>
</svg>
