<svg width="22" height="22" viewBox="0 0 22 22" fill="none" xmlns="http://www.w3.org/2000/svg">
<path d="M7.875 14.125L14.125 7.875" stroke="#1D2123" stroke-width="1.5" stroke-linecap="round" stroke-linejoin="round"/>
<path d="M8.39583 8.91667C8.68348 8.91667 8.91667 8.68348 8.91667 8.39583C8.91667 8.10818 8.68348 7.875 8.39583 7.875C8.10818 7.875 7.875 8.10818 7.875 8.39583C7.875 8.68348 8.10818 8.91667 8.39583 8.91667Z" fill="#1D2123" stroke="#1D2123" stroke-width="1.5" stroke-linecap="round" stroke-linejoin="round"/>
<path d="M13.6048 14.125C13.8925 14.125 14.1257 13.8918 14.1257 13.6041C14.1257 13.3165 13.8925 13.0833 13.6048 13.0833C13.3172 13.0833 13.084 13.3165 13.084 13.6041C13.084 13.8918 13.3172 14.125 13.6048 14.125Z" fill="#1D2123" stroke="#1D2123" stroke-width="1.5" stroke-linecap="round" stroke-linejoin="round"/>
<path d="M3.70833 5.99999C3.70833 5.3922 3.94977 4.80931 4.37954 4.37954C4.80931 3.94977 5.3922 3.70833 5.99999 3.70833H7.04166C7.64676 3.70798 8.22717 3.46833 8.65624 3.04166L9.38541 2.31249C9.59837 2.09833 9.85158 1.92837 10.1305 1.8124C10.4093 1.69642 10.7084 1.63672 11.0104 1.63672C11.3124 1.63672 11.6115 1.69642 11.8904 1.8124C12.1692 1.92837 12.4224 2.09833 12.6354 2.31249L13.3646 3.04166C13.7936 3.46833 14.3741 3.70798 14.9792 3.70833H16.0208C16.6286 3.70833 17.2115 3.94977 17.6413 4.37954C18.071 4.80931 18.3125 5.3922 18.3125 5.99999V7.04166C18.3128 7.64676 18.5525 8.22717 18.9792 8.65624L19.7083 9.38541C19.9225 9.59837 20.0924 9.85158 20.2084 10.1305C20.3244 10.4093 20.3841 10.7084 20.3841 11.0104C20.3841 11.3124 20.3244 11.6115 20.2084 11.8904C20.0924 12.1692 19.9225 12.4224 19.7083 12.6354L18.9792 13.3646C18.5525 13.7936 18.3128 14.3741 18.3125 14.9792V16.0208C18.3125 16.6286 18.071 17.2115 17.6413 17.6413C17.2115 18.071 16.6286 18.3125 16.0208 18.3125H14.9792C14.3741 18.3128 13.7936 18.5525 13.3646 18.9792L12.6354 19.7083C12.4224 19.9225 12.1692 20.0924 11.8904 20.2084C11.6115 20.3244 11.3124 20.3841 11.0104 20.3841C10.7084 20.3841 10.4093 20.3244 10.1305 20.2084C9.85158 20.0924 9.59837 19.9225 9.38541 19.7083L8.65624 18.9792C8.22717 18.5525 7.64676 18.3128 7.04166 18.3125H5.99999C5.3922 18.3125 4.80931 18.071 4.37954 17.6413C3.94977 17.2115 3.70833 16.6286 3.70833 16.0208V14.9792C3.70798 14.3741 3.46833 13.7936 3.04166 13.3646L2.31249 12.6354C2.09833 12.4224 1.92837 12.1692 1.8124 11.8904C1.69642 11.6115 1.63672 11.3124 1.63672 11.0104C1.63672 10.7084 1.69642 10.4093 1.8124 10.1305C1.92837 9.85158 2.09833 9.59837 2.31249 9.38541L3.04166 8.65624C3.46833 8.22717 3.70798 7.64676 3.70833 7.04166V5.99999" stroke="#1D2123" stroke-width="1.5" stroke-linecap="round" stroke-linejoin="round"/>
</svg>
