<svg width="21" height="20" viewBox="0 0 21 20" fill="none" xmlns="http://www.w3.org/2000/svg">
<path d="M7.72293 18.7514C8.17936 18.7514 8.54938 18.376 8.54938 17.9128C8.54938 17.4497 8.17936 17.0742 7.72293 17.0742C7.2665 17.0742 6.89648 17.4497 6.89648 17.9128C6.89648 18.376 7.2665 18.7514 7.72293 18.7514Z" stroke="#ED008C" stroke-width="1.5" stroke-linecap="round" stroke-linejoin="round"/>
<path d="M16.8147 18.7514C17.2712 18.7514 17.6412 18.376 17.6412 17.9128C17.6412 17.4497 17.2712 17.0742 16.8147 17.0742C16.3583 17.0742 15.9883 17.4497 15.9883 17.9128C15.9883 18.376 16.3583 18.7514 16.8147 18.7514Z" stroke="#ED008C" stroke-width="1.5" stroke-linecap="round" stroke-linejoin="round"/>
<path d="M1.11133 1.14081H4.41711L6.63199 12.3697C6.70756 12.7557 6.91456 13.1026 7.21674 13.3494C7.51892 13.5962 7.89703 13.7273 8.28488 13.7198H16.3179C16.7058 13.7273 17.0839 13.5962 17.3861 13.3494C17.6883 13.1026 17.8953 12.7557 17.9708 12.3697L19.2931 5.33381H5.24356" stroke="#ED008C" stroke-width="1.5" stroke-linecap="round" stroke-linejoin="round"/>
</svg>
