<svg width="20" height="18" viewBox="0 0 20 18" fill="none" xmlns="http://www.w3.org/2000/svg">
<path d="M17.3979 2.33054C16.973 1.8765 16.4684 1.51631 15.9131 1.27057C15.3578 1.02483 14.7626 0.898346 14.1615 0.898346C13.5604 0.898346 12.9651 1.02483 12.4098 1.27057C11.8545 1.51631 11.3499 1.8765 10.925 2.33054L10.0431 3.27241L9.16117 2.33054C8.30281 1.41383 7.13862 0.898821 5.92471 0.898821C4.7108 0.898821 3.54661 1.41383 2.68824 2.33054C1.82988 3.24726 1.34766 4.49059 1.34766 5.78703C1.34766 7.08346 1.82988 8.32679 2.68824 9.24351L3.57016 10.1854L10.0431 17.0983L16.516 10.1854L17.3979 9.24351C17.8231 8.78968 18.1603 8.25083 18.3904 7.65775C18.6205 7.06468 18.739 6.429 18.739 5.78703C18.739 5.14506 18.6205 4.50938 18.3904 3.9163C18.1603 3.32323 17.8231 2.78438 17.3979 2.33054V2.33054Z" stroke="#1D2123" stroke-width="1.5" stroke-linecap="round" stroke-linejoin="round"/>
</svg>
