<svg width="17" height="20" viewBox="0 0 17 20" fill="none" xmlns="http://www.w3.org/2000/svg">
<path d="M16.1496 8.33334C16.1496 14.1667 8.49961 19.1667 8.49961 19.1667C8.49961 19.1667 0.849609 14.1667 0.849609 8.33334C0.849609 6.34422 1.65559 4.43656 3.09024 3.03004C4.5249 1.62352 6.4707 0.833344 8.49961 0.833344C10.5285 0.833344 12.4743 1.62352 13.909 3.03004C15.3436 4.43656 16.1496 6.34422 16.1496 8.33334Z" stroke="#1D2123" stroke-width="1.5" stroke-linecap="round" stroke-linejoin="round"/>
<path d="M8.49922 10.8333C9.90754 10.8333 11.0492 9.71406 11.0492 8.33334C11.0492 6.95263 9.90754 5.83334 8.49922 5.83334C7.09089 5.83334 5.94922 6.95263 5.94922 8.33334C5.94922 9.71406 7.09089 10.8333 8.49922 10.8333Z" stroke="#1D2123" stroke-width="1.5" stroke-linecap="round" stroke-linejoin="round"/>
</svg>
