<svg width="22" height="18" viewBox="0 0 22 18" fill="none" xmlns="http://www.w3.org/2000/svg">
<path d="M1.625 17L2.97917 13.1C1.8088 11.4383 1.38541 9.4704 1.78773 7.56229C2.19005 5.65418 3.39069 3.93566 5.16642 2.72626C6.94216 1.51686 9.17214 0.898885 11.4418 0.987228C13.7114 1.07557 15.8662 1.86422 17.5055 3.20655C19.1448 4.54887 20.1572 6.35353 20.3542 8.28497C20.5513 10.2164 19.9197 12.1432 18.5769 13.7071C17.2342 15.271 15.2715 16.3656 13.054 16.7873C10.8364 17.2091 8.51479 16.9293 6.52083 16L1.625 17" stroke="#1D2123" stroke-width="1.5" stroke-linecap="round" stroke-linejoin="round"/>
<path d="M11 9V9.01" stroke="#1D2123" stroke-width="1.5" stroke-linecap="round" stroke-linejoin="round"/>
<path d="M6.83398 9V9.01" stroke="#1D2123" stroke-width="1.5" stroke-linecap="round" stroke-linejoin="round"/>
<path d="M15.166 9V9.01" stroke="#1D2123" stroke-width="1.5" stroke-linecap="round" stroke-linejoin="round"/>
</svg>
