<svg width="86" height="14" viewBox="0 0 86 14" fill="none" xmlns="http://www.w3.org/2000/svg">
<path d="M6.88867 0.904785L8.74267 4.85431L12.8887 5.49154L9.88867 8.56409L10.5967 12.9048L6.88867 10.8543L3.18067 12.9048L3.88867 8.56409L0.888672 5.49154L5.03467 4.85431L6.88867 0.904785Z" fill="#F2994A"/>
<path d="M24.8887 0.904785L26.7427 4.85431L30.8887 5.49154L27.8887 8.56409L28.5967 12.9048L24.8887 10.8543L21.1807 12.9048L21.8887 8.56409L18.8887 5.49154L23.0347 4.85431L24.8887 0.904785Z" fill="#F2994A"/>
<path d="M42.8887 0.904785L44.7427 4.85431L48.8887 5.49154L45.8887 8.56409L46.5967 12.9048L42.8887 10.8543L39.1807 12.9048L39.8887 8.56409L36.8887 5.49154L41.0347 4.85431L42.8887 0.904785Z" fill="#F2994A"/>
<path d="M60.8887 0.904785L62.7427 4.85431L66.8887 5.49154L63.8887 8.56409L64.5967 12.9048L60.8887 10.8543L57.1807 12.9048L57.8887 8.56409L54.8887 5.49154L59.0347 4.85431L60.8887 0.904785Z" fill="#F2994A"/>
<path d="M78.8887 0.904785L80.7427 4.85431L84.8887 5.49154L81.8887 8.56409L82.5967 12.9048L78.8887 10.8543L75.1807 12.9048L75.8887 8.56409L72.8887 5.49154L77.0347 4.85431L78.8887 0.904785Z" fill="white" stroke="#F2994A" stroke-linecap="round" stroke-linejoin="round"/>
</svg>
