<svg width="280" height="20" viewBox="0 0 280 20" fill="none" xmlns="http://www.w3.org/2000/svg">
<path d="M8.256 14.272V16H0.736V15.36C0.736 14.9547 0.794667 14.5707 0.912 14.208C1.04 13.8347 1.17333 13.5253 1.312 13.28C1.45067 13.0347 1.68 12.7627 2 12.464C2.32 12.1547 2.56533 11.936 2.736 11.808C2.90667 11.6693 3.20533 11.4453 3.632 11.136C4.06933 10.8267 4.34667 10.6293 4.464 10.544C5.136 10.0533 5.62133 9.62133 5.92 9.248C6.21867 8.87467 6.368 8.42667 6.368 7.904C6.368 7.38133 6.208 6.96533 5.888 6.656C5.568 6.336 5.12533 6.176 4.56 6.176C3.97333 6.176 3.488 6.352 3.104 6.704C2.72 7.04533 2.52267 7.51467 2.512 8.112H0.736C0.736 7.03467 1.09867 6.15467 1.824 5.472C2.56 4.78933 3.47733 4.448 4.576 4.448C5.58933 4.448 6.43733 4.74667 7.12 5.344C7.80267 5.94133 8.144 6.77867 8.144 7.856C8.144 8.70933 7.94667 9.42933 7.552 10.016C7.168 10.592 6.528 11.2 5.632 11.84C5.49333 11.9467 5.23733 12.128 4.864 12.384C4.49067 12.64 4.21333 12.8373 4.032 12.976C3.86133 13.1147 3.67467 13.3067 3.472 13.552C3.26933 13.7867 3.13067 14.0267 3.056 14.272H8.256Z" fill="#333333"/>
<rect x="26" y="7" width="254" height="6" rx="3" fill="#E0E0E0"/>
<rect x="26" y="7" width="17" height="6" rx="3" fill="#F2994A"/>
</svg>
