<svg width="280" height="20" viewBox="0 0 280 20" fill="none" xmlns="http://www.w3.org/2000/svg">
<path d="M4.464 16.16C3.42933 16.16 2.52267 15.8347 1.744 15.184C0.965333 14.5333 0.565333 13.744 0.544 12.816H2.352C2.46933 13.296 2.72 13.6853 3.104 13.984C3.49867 14.2827 3.952 14.432 4.464 14.432C5.09333 14.432 5.60533 14.2293 6 13.824C6.39467 13.408 6.592 12.9067 6.592 12.32C6.592 11.712 6.39467 11.2107 6 10.816C5.616 10.4107 5.12 10.208 4.512 10.208C3.59467 10.208 2.93333 10.5973 2.528 11.376L0.944 10.88L2.16 4.64H7.568V6.352H3.536L3.008 9.072C3.47733 8.74133 4.06933 8.576 4.784 8.576C5.85067 8.576 6.71467 8.944 7.376 9.68C8.03733 10.416 8.368 11.3547 8.368 12.496C8.368 13.5627 8 14.4427 7.264 15.136C6.53867 15.8187 5.60533 16.16 4.464 16.16Z" fill="#333333"/>
<rect x="26" y="7" width="254" height="6" rx="3" fill="#E0E0E0"/>
<rect x="26" y="7" width="200" height="6" rx="3" fill="#F2994A"/>
</svg>
