<svg width="280" height="20" viewBox="0 0 280 20" fill="none" xmlns="http://www.w3.org/2000/svg">
<path d="M4.768 16.16C3.62667 16.16 2.656 15.8187 1.856 15.136C1.06667 14.4533 0.661333 13.552 0.64 12.432H2.4C2.44267 13.04 2.68267 13.5253 3.12 13.888C3.568 14.2507 4.11733 14.432 4.768 14.432C5.35467 14.432 5.83467 14.2773 6.208 13.968C6.592 13.6587 6.78933 13.232 6.8 12.688C6.8 12.0907 6.60267 11.6427 6.208 11.344C5.824 11.0347 5.29067 10.88 4.608 10.88H3.712V9.376H4.608C5.17333 9.376 5.62133 9.22667 5.952 8.928C6.29333 8.62933 6.46933 8.24 6.48 7.76C6.48 7.29067 6.30933 6.912 5.968 6.624C5.62667 6.32533 5.20533 6.176 4.704 6.176C4.10667 6.176 3.61067 6.352 3.216 6.704C2.82133 7.04533 2.624 7.51467 2.624 8.112H0.848C0.848 7.00267 1.22133 6.11733 1.968 5.456C2.72533 4.784 3.63733 4.448 4.704 4.448C5.76 4.448 6.61333 4.74667 7.264 5.344C7.92533 5.94133 8.256 6.70933 8.256 7.648C8.256 8.17067 8.12267 8.656 7.856 9.104C7.58933 9.54133 7.25867 9.87733 6.864 10.112C7.38667 10.336 7.80267 10.6827 8.112 11.152C8.42133 11.6213 8.576 12.1707 8.576 12.8C8.576 13.792 8.21867 14.6027 7.504 15.232C6.8 15.8507 5.888 16.16 4.768 16.16Z" fill="#333333"/>
<rect x="26" y="7" width="254" height="6" rx="3" fill="#E0E0E0"/>
<rect x="26" y="7" width="45" height="6" rx="3" fill="#F2994A"/>
</svg>
