<svg width="106" height="18" viewBox="0 0 106 18" fill="none" xmlns="http://www.w3.org/2000/svg">
<path d="M8.85735 1.16327L11.2411 6.24123L16.5716 7.06052L12.7145 11.0109L13.6248 16.5918L8.85735 13.9555L4.08992 16.5918L5.00021 11.0109L1.14307 7.06052L6.47364 6.24123L8.85735 1.16327Z" fill="#F2994A"/>
<path d="M30.8574 1.16327L33.2411 6.24123L38.5716 7.06052L34.7145 11.0109L35.6248 16.5918L30.8574 13.9555L26.0899 16.5918L27.0002 11.0109L23.1431 7.06052L28.4736 6.24123L30.8574 1.16327Z" fill="#F2994A"/>
<path d="M52.8574 1.16327L55.2411 6.24123L60.5716 7.06052L56.7145 11.0109L57.6248 16.5918L52.8574 13.9555L48.0899 16.5918L49.0002 11.0109L45.1431 7.06052L50.4736 6.24123L52.8574 1.16327Z" fill="#F2994A"/>
<path d="M74.8574 1.16327L77.2411 6.24123L82.5716 7.06052L78.7145 11.0109L79.6248 16.5918L74.8574 13.9555L70.0899 16.5918L71.0002 11.0109L67.1431 7.06052L72.4736 6.24123L74.8574 1.16327Z" fill="#F2994A"/>
<path d="M96.8574 1.16327L99.2411 6.24123L104.572 7.06052L100.714 11.0109L101.625 16.5918L96.8574 13.9555L92.0899 16.5918L93.0002 11.0109L89.1431 7.06052L94.4736 6.24123L96.8574 1.16327Z" fill="white" stroke="#F2994A" stroke-linecap="round" stroke-linejoin="round"/>
</svg>
