<svg width="20" height="17" viewBox="0 0 20 17" fill="none" xmlns="http://www.w3.org/2000/svg">
<g opacity="0.8">
<path d="M19.1668 0.849856C18.3688 1.42401 17.4853 1.86315 16.5502 2.15036C16.0483 1.56174 15.3813 1.14454 14.6394 0.955193C13.8974 0.765842 13.1164 0.813472 12.4019 1.09164C11.6874 1.36981 11.0739 1.8651 10.6443 2.51052C10.2148 3.15593 9.98991 3.92034 10.0002 4.70036V5.55036C8.53569 5.58909 7.08456 5.2578 5.776 4.58599C4.46745 3.91417 3.34209 2.9227 2.50016 1.69986C2.50016 1.69986 -0.83317 9.34986 6.66683 12.7499C4.9506 13.9381 2.90613 14.5339 0.833496 14.4499C8.3335 18.6999 17.5002 14.4499 17.5002 4.67486C17.4994 4.43809 17.4771 4.20191 17.4335 3.96936C18.284 3.11383 18.8842 2.03366 19.1668 0.849856V0.849856Z" stroke="white" stroke-width="1.5" stroke-linecap="round" stroke-linejoin="round"/>
</g>
</svg>
