<svg width="20" height="15" viewBox="0 0 20 15" fill="none" xmlns="http://www.w3.org/2000/svg">
<g opacity="0.8">
<path d="M18.7835 2.85016C18.6845 2.45467 18.4829 2.09231 18.199 1.79967C17.9152 1.50703 17.5591 1.29448 17.1668 1.1835C15.7335 0.833496 10.0001 0.833496 10.0001 0.833496C10.0001 0.833496 4.26682 0.833496 2.83348 1.21683C2.44119 1.32782 2.08513 1.54036 1.80127 1.833C1.51741 2.12564 1.31581 2.488 1.21682 2.8835C0.954496 4.33813 0.826181 5.81375 0.833484 7.29183C0.824134 8.78103 0.952457 10.2679 1.21682 11.7335C1.32595 12.1167 1.53207 12.4653 1.81527 12.7456C2.09847 13.0258 2.44917 13.2283 2.83348 13.3335C4.26682 13.7168 10.0001 13.7168 10.0001 13.7168C10.0001 13.7168 15.7335 13.7168 17.1668 13.3335C17.5591 13.2225 17.9152 13.01 18.199 12.7173C18.4829 12.4247 18.6845 12.0623 18.7835 11.6668C19.0438 10.2232 19.1721 8.75878 19.1668 7.29183C19.1762 5.80263 19.0478 4.31574 18.7835 2.85016V2.85016Z" stroke="white" stroke-width="1.5" stroke-linecap="round" stroke-linejoin="round"/>
<path d="M8.125 10.0164L12.9167 7.29141L8.125 4.56641V10.0164Z" stroke="white" stroke-width="1.5" stroke-linecap="round" stroke-linejoin="round"/>
</g>
</svg>
